<?xml version="1.0" encoding="iso-8859-1"?>
<!-- Generator: Adobe Illustrator 19.0.0, SVG Export Plug-In . SVG Version: 6.00 Build 0)  -->
<svg version="1.1" id="Capa_1" xmlns="http://www.w3.org/2000/svg" xmlns:xlink="http://www.w3.org/1999/xlink" x="0px" y="0px"
	 viewBox="0 0 512 512" style="enable-background:new 0 0 512 512;" xml:space="preserve">
<circle style="fill:#00C7FF;" cx="256" cy="256" r="256"/>
<path style="fill:#0093C4;" d="M512,256c0-0.037-0.001-0.073-0.001-0.11L392.127,136.018L100.5,375.982l135.219,135.219
	C242.411,511.726,249.173,512,256,512C397.385,512,512,397.385,512,256z"/>
<polygon style="fill:#9ABADB;" points="392.127,136.018 256,136.018 243.842,349.394 392.127,337.236 "/>
<g>
	<polygon style="fill:#D1E8FF;" points="119.873,136.018 119.873,337.236 256,349.394 256,136.018 	"/>
	<polygon style="fill:#D1E8FF;" points="411.5,337.236 256,337.236 243.842,356.609 256,375.982 411.5,375.982 	"/>
</g>
<rect x="100.5" y="337.24" style="fill:#F5F5FF;" width="155.5" height="38.747"/>
<polygon style="fill:#294B6E;" points="373.904,154.24 256,154.24 243.842,236.627 256,319.013 373.904,319.013 "/>
<rect x="138.1" y="154.24" style="fill:#6283A3;" width="117.9" height="164.77"/>
<polygon style="fill:#F5F5FF;" points="209.124,284.901 160.85,236.627 209.124,188.353 222.009,201.238 186.62,236.627 
	222.009,272.016 "/>
<g>
	<polygon style="fill:#D1E8FF;" points="302.876,284.901 289.991,272.016 325.38,236.627 289.991,201.238 302.876,188.353 
		351.15,236.627 	"/>
	
		<rect x="246.888" y="179.052" transform="matrix(-0.9808 -0.1951 0.1951 -0.9808 460.912 518.6826)" style="fill:#D1E8FF;" width="18.223" height="115.182"/>
</g>
<g>
</g>
<g>
</g>
<g>
</g>
<g>
</g>
<g>
</g>
<g>
</g>
<g>
</g>
<g>
</g>
<g>
</g>
<g>
</g>
<g>
</g>
<g>
</g>
<g>
</g>
<g>
</g>
<g>
</g>
</svg>
